<?xml version="1.0" encoding="UTF-8" standalone="no"?>
<!-- Created with Inkscape (http://www.inkscape.org/) -->

<svg
   width="188.68352mm"
   height="146.86336mm"
   viewBox="0 0 188.68352 146.86336"
   version="1.1"
   id="svg5"
   xml:space="preserve"
   inkscape:version="1.2.2 (b0a8486541, 2022-12-01)"
   sodipodi:docname="drawing.svg"
   xmlns:inkscape="http://www.inkscape.org/namespaces/inkscape"
   xmlns:sodipodi="http://sodipodi.sourceforge.net/DTD/sodipodi-0.dtd"
   xmlns:xlink="http://www.w3.org/1999/xlink"
   xmlns="http://www.w3.org/2000/svg"
   xmlns:svg="http://www.w3.org/2000/svg"><sodipodi:namedview
     id="namedview7"
     pagecolor="#ffffff"
     bordercolor="#000000"
     borderopacity="0.25"
     inkscape:showpageshadow="2"
     inkscape:pageopacity="0.0"
     inkscape:pagecheckerboard="0"
     inkscape:deskcolor="#d1d1d1"
     inkscape:document-units="mm"
     showgrid="false"
     inkscape:zoom="1.1383453"
     inkscape:cx="-80.819066"
     inkscape:cy="432.64554"
     inkscape:window-width="3440"
     inkscape:window-height="1305"
     inkscape:window-x="0"
     inkscape:window-y="0"
     inkscape:window-maximized="1"
     inkscape:current-layer="layer2" /><defs
     id="defs2"><linearGradient
       inkscape:collect="always"
       id="linearGradient56977"><stop
         style="stop-color:#192c36;stop-opacity:1;"
         offset="0"
         id="stop56973" /><stop
         style="stop-color:#244941;stop-opacity:1;"
         offset="1"
         id="stop56975" /></linearGradient><linearGradient
       inkscape:collect="always"
       xlink:href="#linearGradient56977"
       id="linearGradient56979"
       x1="40.719807"
       y1="78.769264"
       x2="90.968346"
       y2="78.769264"
       gradientUnits="userSpaceOnUse"
       gradientTransform="matrix(1.2942014,0,0,1.2942014,-36.28023,-34.266059)" /></defs><g
     inkscape:groupmode="layer"
     id="layer2"
     inkscape:label="vector"
     style="display:inline;opacity:1"
     transform="translate(-13.729621,-33.551591)"><path
       style="display:inline;fill:#1a2634;fill-opacity:1;stroke:none;stroke-width:0.342424;stroke-opacity:1"
       d="M 61.637477,106.88837 51.026475,78.018936 68.339318,59.804709 97.612671,58.228541 135.00573,78.8895 l 3.08289,0.373562 3.33394,25.365738 z"
       id="path80161"
       inkscape:label="fase"
       sodipodi:nodetypes="cccccccc" /><path
       style="color:#000000;display:inline;fill:#7db950;fill-opacity:1;stroke:none;stroke-width:0.346892;stroke-opacity:1;-inkscape-stroke:none"
       d="m 117.08119,79.173544 c 0.25793,11.333613 -7.36529,19.252104 -16.48078,19.252104 -9.1155,0 -16.505055,-7.139991 -16.505055,-15.947624 0,-3.711276 0.822107,-6.903895 3.358441,-9.589048 1.718713,1.004535 7.633976,1.027013 9.86328,0.81706 5.231774,-0.492722 7.401644,-3.498485 19.764114,5.467508 z"
       id="path67042"
       sodipodi:nodetypes="csscsc"
       inkscape:label="iris" /><path
       id="path67477"
       style="display:inline;fill:#1a2634;fill-opacity:1;stroke-width:0.372803;stroke-opacity:0.996021"
       inkscape:label="pupil"
       d="m 110.88048,81.603837 c 0,6.104022 -4.94828,11.052311 -11.0523,11.052311 -6.104025,1e-5 -11.052316,-4.948285 -11.052316,-11.052311 0,-5.014218 3.13195,-9.299425 7.914993,-10.600702 0,0 2.68287,-0.363929 5.386703,0.376183 1.45985,0.331602 3.209,0.819754 4.74539,1.482312 2.88753,1.993918 4.05753,4.967646 4.05753,8.742207 z"
       sodipodi:nodetypes="ssscccs" /><path
       style="fill:url(#linearGradient56979);fill-opacity:1;stroke:none;stroke-width:0.342424;stroke-opacity:0.23353"
       d="m 19.567495,47.244655 c -1.95779,8.142606 -8.984669,20.428176 9.192466,34.682409 8.888575,6.97028 19.638962,9.06704 28.690218,1.212068 C 64.317043,77.179842 79.722634,69.610478 81.254877,69.105471 82.787105,68.600463 19.567495,47.244655 19.567495,47.244655 Z"
       id="path41516"
       inkscape:label="nape"
       sodipodi:nodetypes="csssc" /><path
       style="display:inline;fill:#388347;fill-opacity:1;stroke:none;stroke-width:0.342424"
       d="m 15.724053,34.46361 c 5.730789,-3.110036 9.066813,2.442055 37.504052,6.044538 28.437229,3.602487 46.825935,4.188832 65.395945,14.705828 18.57002,10.516995 17.7663,23.298035 17.56024,24.981631 -0.20605,1.683598 -1.69432,4.826945 -4.74595,4.878445 -4.95061,0.08355 -9.99546,-6.733546 -13.16818,-9.042755 -5.80537,-4.225339 -14.39415,-7.723184 -20.149386,-8.120212 -10.824225,-0.746712 -19.692963,2.465631 -19.692963,2.465631 0,0 -29.895922,1.576799 -47.630376,-10.21616 C 9.3689041,45.911116 13.200619,35.833054 15.724053,34.46361 Z"
       id="path31924"
       sodipodi:nodetypes="sscsssscss"
       inkscape:label="crest" /><path
       style="fill:#e9e9e9;fill-opacity:1;stroke:#1a2634;stroke-width:1.74637;stroke-dasharray:none;stroke-opacity:1"
       d="m 129.4605,112.8936 c -14.48219,8.42871 -30.943981,14.63732 -42.188481,27.5826 -5.220017,7.17578 -9.370132,15.5474 -10.308842,24.44659 -0.797863,4.58581 2.343526,11.65112 1.063302,14.49381 -17.582049,-3.67782 -35.09962,-13.66176 -43.24478,-30.25915 -5.830351,-12.17221 -6.145878,-26.7306 -0.831058,-39.14116 4.696901,-11.741792 13.97164,-21.915278 25.491172,-27.089275 6.479807,-2.745384 11.601531,-6.142894 16.147736,-4.808779 3.496066,9.090005 7.149143,19.856782 16.795542,24.067564 11.146899,4.2769 23.594329,-0.93368 34.644129,3.79614 2.33376,1.23693 4.23284,4.46733 2.43128,6.91166 z"
       id="path79315"
       sodipodi:nodetypes="ccccccccccc"
       inkscape:label="neck" /><path
       style="display:inline;fill:#b88867;fill-opacity:1;stroke:#1a2634;stroke-width:1.74637;stroke-dasharray:none;stroke-opacity:1"
       d="m 109.14795,100.95847 c 17.44284,-6.856272 26.6464,-13.517809 28.45542,-20.877677 29.71813,3.143922 53.14679,13.855415 64.11456,28.287767 C 177.59979,96.826828 162.479,95.901168 150.27208,96.738358 c -16.042,1.10023 -34.00209,5.395822 -41.12413,4.220112 z"
       id="path72793"
       sodipodi:nodetypes="cccsc"
       inkscape:label="beak-upper" /><path
       style="display:inline;fill:#b88867;fill-opacity:1;stroke:#1a2634;stroke-width:1.74637;stroke-dasharray:none;stroke-opacity:1"
       d="m 113.17136,103.54294 c 26.77887,-4.975112 35.45685,-5.539462 48.11773,-5.583022 18.65893,-0.0642 39.79573,11.511182 39.79573,11.511182 -13.0863,-2.83275 -23.43794,-4.57557 -33.9663,-4.03481 -12.96253,0.66577 -33.41686,5.36466 -37.75484,7.5339 -1.31169,-3.12817 -3.95884,-8.71845 -16.19232,-9.42725 z"
       id="path74791"
       sodipodi:nodetypes="cscscc"
       inkscape:label="beak-lower" /><circle
       style="opacity:1;fill:#ffffff;fill-opacity:1;stroke:none;stroke-width:2.5127;stroke-dasharray:none;stroke-opacity:1"
       id="path3274"
       cx="90.359535"
       cy="75.934547"
       inkscape:label="spark-big"
       r="4.2647152" /></g></svg>
